<mxfile host="app.diagrams.net" modified="2024-05-13T20:30:34.865Z" agent="Mozilla/5.0 (Macintosh; Intel Mac OS X 10_15_7) AppleWebKit/537.36 (KHTML, like Gecko) Chrome/124.0.0.0 Safari/537.36" etag="W_JOo2bm2hM54zm9xnxi" version="24.4.0" type="device">
  <diagram name="Page-1" id="tQ-gGnBmzyJWV9kdw-IU">
    <mxGraphModel dx="1434" dy="795" grid="1" gridSize="10" guides="1" tooltips="1" connect="1" arrows="1" fold="1" page="1" pageScale="1" pageWidth="850" pageHeight="1100" math="0" shadow="0">
      <root>
        <mxCell id="0" />
        <mxCell id="1" parent="0" />
        <mxCell id="yK2G3_Zb7iP9LqbmVMu7-8" value="" style="outlineConnect=0;dashed=0;verticalLabelPosition=bottom;verticalAlign=top;align=center;html=1;shape=mxgraph.aws3.cloud_2;fillColor=#F58534;gradientColor=none;" vertex="1" parent="1">
          <mxGeometry x="823" y="236.25" width="27.5" height="27.5" as="geometry" />
        </mxCell>
        <mxCell id="yK2G3_Zb7iP9LqbmVMu7-17" value="" style="group" vertex="1" connectable="0" parent="1">
          <mxGeometry x="13" y="210" width="280" height="30" as="geometry" />
        </mxCell>
        <mxCell id="yK2G3_Zb7iP9LqbmVMu7-18" value="Run automations for open pull request" style="text;html=1;align=left;verticalAlign=middle;whiteSpace=wrap;rounded=0;" vertex="1" parent="yK2G3_Zb7iP9LqbmVMu7-17">
          <mxGeometry x="23" y="-3" width="257" height="30" as="geometry" />
        </mxCell>
        <mxCell id="yK2G3_Zb7iP9LqbmVMu7-19" value="3" style="ellipse;whiteSpace=wrap;html=1;aspect=fixed;spacingLeft=1;" vertex="1" parent="yK2G3_Zb7iP9LqbmVMu7-17">
          <mxGeometry y="2" width="20" height="20" as="geometry" />
        </mxCell>
        <mxCell id="yK2G3_Zb7iP9LqbmVMu7-23" value="" style="group" vertex="1" connectable="0" parent="1">
          <mxGeometry x="13" y="290" width="240" height="30" as="geometry" />
        </mxCell>
        <mxCell id="yK2G3_Zb7iP9LqbmVMu7-24" value="Review and merge pull request" style="text;html=1;align=left;verticalAlign=middle;whiteSpace=wrap;rounded=0;" vertex="1" parent="yK2G3_Zb7iP9LqbmVMu7-23">
          <mxGeometry x="23" y="-3" width="217" height="30" as="geometry" />
        </mxCell>
        <mxCell id="yK2G3_Zb7iP9LqbmVMu7-25" value="4" style="ellipse;whiteSpace=wrap;html=1;aspect=fixed;spacingLeft=1;" vertex="1" parent="yK2G3_Zb7iP9LqbmVMu7-23">
          <mxGeometry y="2" width="20" height="20" as="geometry" />
        </mxCell>
        <mxCell id="yK2G3_Zb7iP9LqbmVMu7-26" value="" style="group" vertex="1" connectable="0" parent="1">
          <mxGeometry x="13" y="350" width="260" height="30" as="geometry" />
        </mxCell>
        <mxCell id="yK2G3_Zb7iP9LqbmVMu7-27" value="Run automations for merged pull request" style="text;html=1;align=left;verticalAlign=middle;whiteSpace=wrap;rounded=0;" vertex="1" parent="yK2G3_Zb7iP9LqbmVMu7-26">
          <mxGeometry x="23" y="-3" width="237" height="30" as="geometry" />
        </mxCell>
        <mxCell id="yK2G3_Zb7iP9LqbmVMu7-28" value="5" style="ellipse;whiteSpace=wrap;html=1;aspect=fixed;spacingLeft=1;" vertex="1" parent="yK2G3_Zb7iP9LqbmVMu7-26">
          <mxGeometry y="2" width="20" height="20" as="geometry" />
        </mxCell>
        <mxCell id="yK2G3_Zb7iP9LqbmVMu7-29" value="Pipeline steps" style="text;html=1;align=left;verticalAlign=middle;whiteSpace=wrap;rounded=0;fontStyle=1;fontSize=18;" vertex="1" parent="1">
          <mxGeometry x="13" y="30" width="136.25" height="30" as="geometry" />
        </mxCell>
        <mxCell id="yK2G3_Zb7iP9LqbmVMu7-30" value="Example" style="text;html=1;align=left;verticalAlign=middle;whiteSpace=wrap;rounded=0;fontStyle=1;fontSize=18;" vertex="1" parent="1">
          <mxGeometry x="339.75" y="30" width="136.25" height="30" as="geometry" />
        </mxCell>
        <mxCell id="yK2G3_Zb7iP9LqbmVMu7-14" value="" style="group" vertex="1" connectable="0" parent="1">
          <mxGeometry x="13" y="150" width="208" height="30" as="geometry" />
        </mxCell>
        <mxCell id="yK2G3_Zb7iP9LqbmVMu7-15" value="Open pull request" style="text;html=1;align=left;verticalAlign=middle;whiteSpace=wrap;rounded=0;" vertex="1" parent="yK2G3_Zb7iP9LqbmVMu7-14">
          <mxGeometry x="23" y="-2" width="185" height="30" as="geometry" />
        </mxCell>
        <mxCell id="yK2G3_Zb7iP9LqbmVMu7-16" value="2" style="ellipse;whiteSpace=wrap;html=1;aspect=fixed;spacing=2;spacingLeft=1;" vertex="1" parent="yK2G3_Zb7iP9LqbmVMu7-14">
          <mxGeometry y="2" width="20" height="20" as="geometry" />
        </mxCell>
        <mxCell id="yK2G3_Zb7iP9LqbmVMu7-31" value="" style="group" vertex="1" connectable="0" parent="1">
          <mxGeometry x="13" y="72.5" width="230" height="70" as="geometry" />
        </mxCell>
        <mxCell id="yK2G3_Zb7iP9LqbmVMu7-12" value="Commit code to a branch in your VCS" style="text;html=1;align=left;verticalAlign=middle;whiteSpace=wrap;rounded=0;fontStyle=0" vertex="1" parent="yK2G3_Zb7iP9LqbmVMu7-31">
          <mxGeometry x="23" width="207" height="70" as="geometry" />
        </mxCell>
        <mxCell id="yK2G3_Zb7iP9LqbmVMu7-13" value="1" style="ellipse;whiteSpace=wrap;html=1;aspect=fixed;align=center;spacingLeft=1;fontStyle=0" vertex="1" parent="yK2G3_Zb7iP9LqbmVMu7-31">
          <mxGeometry y="25" width="20" height="20" as="geometry" />
        </mxCell>
        <mxCell id="yK2G3_Zb7iP9LqbmVMu7-42" value="" style="group" vertex="1" connectable="0" parent="1">
          <mxGeometry x="342.05999999999995" y="156.06999999999994" width="150.94000000000005" height="17.879999999999995" as="geometry" />
        </mxCell>
        <mxCell id="yK2G3_Zb7iP9LqbmVMu7-6" value="" style="shape=image;html=1;verticalAlign=top;verticalLabelPosition=bottom;labelBackgroundColor=#ffffff;imageAspect=0;aspect=fixed;image=https://cdn0.iconfinder.com/data/icons/phosphor-bold-vol-3-1/256/git-pull-request-duotone-128.png" vertex="1" parent="yK2G3_Zb7iP9LqbmVMu7-42">
          <mxGeometry width="17.88" height="17.88" as="geometry" />
        </mxCell>
        <mxCell id="yK2G3_Zb7iP9LqbmVMu7-33" value="GitHub Pull Request" style="text;html=1;align=left;verticalAlign=middle;whiteSpace=wrap;rounded=0;fontSize=14;" vertex="1" parent="yK2G3_Zb7iP9LqbmVMu7-42">
          <mxGeometry x="21.940000000000055" y="2.060000000000059" width="129" height="13.75" as="geometry" />
        </mxCell>
        <mxCell id="yK2G3_Zb7iP9LqbmVMu7-43" value="" style="group" vertex="1" connectable="0" parent="1">
          <mxGeometry x="339.75" y="92.5" width="65.5" height="30" as="geometry" />
        </mxCell>
        <mxCell id="yK2G3_Zb7iP9LqbmVMu7-1" value="" style="group" vertex="1" connectable="0" parent="yK2G3_Zb7iP9LqbmVMu7-43">
          <mxGeometry width="22.5" height="30" as="geometry" />
        </mxCell>
        <mxCell id="yK2G3_Zb7iP9LqbmVMu7-2" value="" style="shape=image;html=1;verticalAlign=top;verticalLabelPosition=bottom;labelBackgroundColor=#ffffff;imageAspect=0;aspect=fixed;image=https://cdn4.iconfinder.com/data/icons/ionicons/512/icon-social-github-128.png" vertex="1" parent="yK2G3_Zb7iP9LqbmVMu7-1">
          <mxGeometry x="0.9375000000000002" width="20.625" height="20.625" as="geometry" />
        </mxCell>
        <mxCell id="yK2G3_Zb7iP9LqbmVMu7-3" value="GitHub" style="text;html=1;align=left;verticalAlign=middle;whiteSpace=wrap;rounded=0;fontSize=14;" vertex="1" parent="yK2G3_Zb7iP9LqbmVMu7-43">
          <mxGeometry x="24.25" y="3.6283333333333303" width="41.25" height="13.750000000000002" as="geometry" />
        </mxCell>
        <mxCell id="yK2G3_Zb7iP9LqbmVMu7-44" value="" style="group" vertex="1" connectable="0" parent="1">
          <mxGeometry x="345.05999999999995" y="214.19000000000005" width="147.94000000000005" height="13.75" as="geometry" />
        </mxCell>
        <mxCell id="yK2G3_Zb7iP9LqbmVMu7-4" value="" style="shape=image;verticalLabelPosition=bottom;labelBackgroundColor=default;verticalAlign=top;aspect=fixed;imageAspect=0;image=data:image/png,iVBORw0KGgoAAAANSUhEUgAAASwAAAEsCAMAAABOo35HAAAC9FBMVEVHcExQgL1Kfb9JfL5KfL1Jfr9Jfr9Jfb5Jfr5Jfr9Kfr5Kfr9KfsBJfb9KfsBKgMNLd75Mf8JKfsBJfb5Jfb9Jfr9Kfr9Ng8dQiM5Ph81OhcpJfr9Kf8BKfr9Jfr5IfL1LgMJKfsBKgMJOhMhOhMlMgsVMgcNLgMJLf8BOhclKgMJJfb9LgMJKfsBKfsBLgMNLgMJNhMhPh8xNg8ZKf8BKfsBKfsFJfr9Kf8FOhstMgcROhspKfr9KgMFZkcZIe7xKfsBJfr9PhstKfsBMgsRJfb9Jfr5KfcBKfsBJfb9Lf8FKfr9NgsVPhsxIe7lKfr9Jfr9NgsZLgMJLgMNJfb5GerlLgcRLgMNKf8FJfb1LgcRKfb5Jfr9LgcRJfb9Jfb5Jfb9KfsBJfb5Jfr9KfsFGfLpIfb5Kfb9Ke71IfbxJfb9IfL5LgMNLgcNJfb9Jfb5Jf71LgMJKgMJKfr9Kf8FJfsBKfsBLgMJJfb5MgcVKfr5Kf8JJfb5LgMNLfb9Jfb5Jfr9Jfb5Jfb9Jfb5JfsBJfb9LgcNLgMJLgMNKf79Jfr9GerlHe7tLgcRQh81JfL1JfsBJfb5KfsBKfr9LgMNLgMFEeLtJfr9JfsNKfr9LgMJPh8tJfb5Qic9Kfb9Jfr9MgsVJfb9Kfr9Jfb5TgbBJfr5Kfb9LgMJHfr5LgMNJfr9Jfb9MgcVLgcRKfb6Fs96Dsd6Es9+Es96Fs9+FtOGEst6Est6Es96GstyFtN+Fs9+Fs9+GteKGteGFtOCFs9+ItuOIuOWGtOCFtOCFs9+Es9+GtOGFtOCFtOGFtOCEst+KuuePwO+Nvu2KuuiHtuKGteGJueaLvOqOv+6FtOCFtOCEs96Fs+CFs9+HtuOFs9+DsduHtuOOwO+MveyDseGGteKHtuOGtOCEs+CEst6Ht+SFs9+HtuOFs9+It+WJuOaFs9+Es+CFs96Fs9+PwfGFs9+Est+Fst6Fs9+Fs+CHtuOFst+It+SFs9+Est6Qw/KFs+DyYsmOAAAA/HRSTlMABBw4UWJ+k6+0sqx7TjYZBi2NuuLy///////giF0oH5rX9P/////////w1ZdaabTt/////+yvSKT////poAMZcc/////JbRaC5f95F/8QZt3/1bouC/XIwzHy/fzu78GcRpi+2gkmhiotUkTj5qYhJOndVfi3vPxL9/+VPPkrLPRYPkB2gOvM0g/MDhT7/zTnOkJ0//8SqQxv4P+f/9LG/Y/3HgHZYI8Tr/mK/9myCRYpPFBVQTMeES9ji7DP7/z////24MOeeESW1v///////////+dzSZv/wG8bxv//Ddv4pzhb02mzI+b6f03/ov+zyr24rruF8ZHP/3sC67hSAAAqrUlEQVR4Aezd+VvT6P7w8Q87KEVGh09IFLc2TaMDY9MwQJAtBYRgQBRUHFEWQQdUcHBFUVEUB7GggCKDO6Kj4/kbH7/zHJo7TZcEevAq4+tnL5vrzZ19uWE54uITEpOSU1LT1n2Vtj4lPcmWsSEOAnyX+UPSxk0/ZiGVTTPUfzF0NoVZm9O25Gz1F/tuW872HTvt2Q7WyblQx8U5WT6b2rX7p9x4+A625f28xy14nCKG5HJStD3/l6R/ea/MgsL8IkYSMSJRKmb2lhSUwr9VWXkFK0teNEmsFNiq6n3wbxRfUyu7FbREsRdtrtsP/zb7ampVD1rn9aib6+rh3ySu4YDQiMvkEQ7mwL9HwiGGwhVw239ugn+H5prDsogroqi70jPhXyDjiODEsFzcVxFyVspHW2DNqz5WHPpYiuIZRlY9vx7/9VdKLWIYngp5sCrKrUmwttWXFLMhDqIcsvvEjpNt6Um29oSvCmwNyR2dp7Icsj3EoVijvaML1rDuI7QSrBRbzOd3nrad6YIAzb/1bDm5h2FYEY044eg2WLN6z6poxDHuc+dz+yCk/pz1FxwMhwZe+vcEWKMGWnk0kOiLl3LKIIL4pMtXVCcaMBeuwpqUc40aNKbKup4BptzYvkuVMMCg+3AirEG5Q43GjU7W9Ztg2q2U2yqHAahja7BWjqGVyFwpuQmWtJznGG9grbU3toavBbaS5KN3wLL2I4JkqHUV1pS7rRTqMTtHMmEZuu4N8ahnv58Ba0j/WX4QSYowmrDs8A8EBUmDzIF4WDP+GFP1rSR++0NYtvFCxok69MlmWCsKaS+SqEflsCLJlR5dfdHXAWtEHqPoj41abbBCuccoXS3OngNrwsROVr+FmXwMK/bkvl1Xy7PnFqwBXVXFulb8ZAZEwd09Dl0toTMOYt9pQb8Okq1WVosia4lFUxDzJoacSKB2ZUCUPDnMIoHd9QPEuNKT8iBqpEc2CKq+b9u2ZrAml51GgnAJYlxSkYiaGb4cgugr33Rq72TtwXV5/WBFsqygRnH3QEx7esCNBLUNjB7WXBAYimVZipHv/7QVLHgmIMGxuxliWTKNhKKKWTD4bdTH4hIpuzX5DzBtfIfuNEp9DjFs/6QHNZXHJsCgZU5FEiscHADT7up2H9SBeohdyQJqxD9HguTcoWIAu6ew2/KBSewPrX21HtQwVXFgMP8CDRT1fl0mmNO827FGhtZzFTXc0A0weHyFwyBYdawAzLkqcahhkiBGdb20o0aYB6NCHwblZa5s3wampApkrFelEJtslIJ+0u1+MNi3l8UQOHrO3ChpuuhEv5nXTyA2nVdRo74Bo0RWwZAo5tIEmJDyJ2qENohJ205IxMDK6gOj0zKG4ZKP1TRDRFvfTqMfW7sPYlEDWYJOgSBKfOinONFAUkevQkSFAvp5+WGIRWnF6MddbIEg1slaq6wTzAwG8vLOkniI4C65S5XPQwx6d6IS/ZhNECGWZ3dLCeVAA06Yy4HwFl7x6Nc4OQ6xJ8ch4hLRnQPBpBKx3mfCwEHaiQaU45dbEFY1cZta8dgg9szT6MfuHYcgSi8zRKynAE83XisSgxzR7ymPgzC2ZUnoJ7yBmJO5wxNxQ9I15tbHArhzVGbRgGUOTUAYaQz62ccg5vz21olLRD7XbCyIK78vKBhIlHeeng234xWJg5R+iDWLDhcuqTzxznQsgK3PPO5gRxFH7kIoW287cYmL6oFY8yYb/RydYCEWQO7vwTb0/NCHpxDcQhWFfr57EGs28egnn7YWC8Y/DDFeDOSkHxRAcG8E9GPWQ4yJ28ziEtGeaC4W4cmrYBt6/tFPHyGYxWKtLbV7AWJLPLEVkbK2Wo4FXXX3BRcG4rIfTEAQE8TuRMp/B7El4TiHS6j3zaZjEc785abQQN5zF4zqa1kt6KfHEFsS3dqw4DvBfCzS4hzNYYBB+55gLarsuMTlGYDYspiNfkzbMmNB/PUrjKGWfKoMDM4z6JedB7Hlno+IlQ7BLXTy+lhG7aNqJQbI7gh/ZYyugdiSUox+RUkQwjo5UiyYvbdTFVHHebEJAlULMXx2mEqhn5BoPRah6Wfeg6RgVxJzyNX+PMSWNIrY4LZbi2XQcFblkGA3PtTQY3fFbqx1WizueMIKY8G2EkkaRD/u7U0I0DujfI+1ZHjPNPqJ1A0I0M59j6V5Rn+PZTZWQyu3dmORG3iqYKWxmv6iyG2W03iyOcCLWqxnEFvWu6N26ADNybsEBQn8WGbYM4bCWD4obVhRrPYjKos69GkINBXLB6XJ5OlO8gpibWtzMqgn7eyHQJ/l2LxUalwt5pcdayHvrPHCQ/ZpMHgWyyfSNoq4RHMyzB3+sLEmgnzhZ1AYexj2Eo3C9kBsySAu/nkO/AFBZVa5w8Wq/3w4yC3XonNnwGCcuPg3/SkBYsuGLCcucd7+YTnXswYOChIGEoW5x2CU8IkjLitvgNhSeoBFP2bAeqz+QtaBBqxwqA+CaBAwhm9YQBp5K+yz1ViZU/dVLtiXjUJ8NqtDxpg7JiVszEY/+yuLsZ4cZVg0YIsOtYQYxxUU+mUnQ6zJIe5YSCf6zMQibrEGe5ZG2PM8DoL7gbgTpry2Qaw5Qyw/MjkWYi3+LjjRgHL/1Q2hVKtIPFixDWJN3G4P+hWvh2DijjoMsX77y0EFfdB70eSzAvYqiD0dNPr9nV8W+Qi+/p/70K2qggaMtD0eQusnbn+j7zPEngFio+VlGiLGOtAMUDAm/I0GkhDhmeUp2UscvxdA7NmvewC3M1IsZWi4aZ7j0UCUL57+A8IpHbOjX2PtU4hBqUXkW04JEESajH6K91eeQwMPcygDwut9PYN+8jzEoiTZFeE1J0iVUaMEScWpZ/MWrLz867UPQCwqy2eROD+8CUYd2RiOl3GW9EEkGUNEZc/meohJJSpqfG1gNMKLGBqrHmm3+la5kAKx6Yk0QwytnTfB4O60ghrDEXtdF4C1gcUNZUBsihvjUfPnejCYfU9hCA7q2VYwY5OM5F53AWJUAyOiH/f6KhjU+DAoVnjQA6YMk2+Aiu5hiFVPf6RQwwT5qkN8LYVGM0Jr8iyY8vGAHTX2HbMQs0YEJNCfwWBR5jAQX3n+poWTKkJRHsSuj7qhNT10FwzaXiiB+8CKRDDLJpGt7e9nIYaVF3tRw5/aB4Ey51VWd3nhXHkzmPVuzo4akWmAWNa8m0cCvR6M6o75KvEf3kph6Kc+MK30Eo0EZiwTYtqAW0GNqN4Do5aSCzwjyzLjuF+SABa8UUUkd7cFEOPShEHUTFfmQBB9uRvXXVq/cbgPrMijOCTQ5yHWndnFIoG91g5R0vNIQkLjhT6IeXWCFzWDVOtdiIqrxzzkmFWKqyH2ZZ4sCnidJCq1CgI+6yqsW4A1YOseT0CtAlixHn2rQfu5d7AmLLo5XS33tUVYobxHnkEkTL/ugTUihfbqarFsDaxE6QdK0rUS6dOwVjR30qjDCX9tgGXru0RzqONblwlrRtkXGXVE4ctVWKbE3wUv6qgv62ENaTnnRj3HlQ9PYRn2/SQZ/qu5blhTnuykUG+aftADluUeFDjUs7cmwBqTeJjCAA5PWgJYcueQ3Y0B3K29QFiztRT5eGEGmHbjmUtW0DCu2mENSjzmxkCc8OlZ+wKYEHf1r+NCkKuq93thTbp7TkaDadlZVd4PEWytq2BlDg3UuQRYo5oO0iIaKHZ118/PWxYghIWJqUu7VLeCBiI92g1rVhl5OEmQGGFnxU9JN/ZDgA03Gra/fCvwTgzCKaz/CGtY6UaWwqCclCx/mqxYn1K3mGPr7bXlJNW9SX05+asqU9MYlPtRDUQUf2Mg7971tra2+ZTkvJ6MePjfiut/klte09H21ee6RVtLPazI8FlBxBA4luKLVNrXqCiebFqVeYrlMASFnrNBWKUZefMVk8ftPpX5P0VqtvvT5Nj2RXKFj6aHT6ZSd+SLMi0z/0dWafb25pMbh/th+bp/ZhoxPGVmxoXheRzr30EYme0fKi4KjJsl51gWp1l3kXy7ouZOHETZR1vJAYXmKYnzkp9e9djl4j2dIy2wXAvV9+kZXBGOPtcAYXSnv6wU3BwG5XQLM2NTfRBFEx82U7JnBoPxSryw8/LiH8seXIV/8yIumxjhk95N21t1O08jzi5f+HAGouTqX0OqR8QwnAxzKn0/LJNtlHHj8njtjqPtENrW7TsFCSNihWPX+yAK2g9JMoeReCl1Lv0pLE9zw3vZLaJlLodckZMJIdXXtNJONEWiL9TNwgr1lVyRFTTFI5zKgWX6WP7SznBoCVdkr2p4CKHZDgosmsYKo3dhJRbyLvg4NM1O/dUNy9Q1fPmK4HGhSQolXEzryYTQZj9IPFrCXKvJhGXb9hffiFYowoUkWLbHHw5QqkfBiGYoofH9lgwI5+YRmkOLJOFQPyyT7aygoEUe6nozLFu9bftmiXazSphQrMM3c+D61VkIy3auCK0Thbk7sCxTj+zLOuo52gcrUF9Q8+qCxA9iIHHGyVKyTznbmd7bDBE0XHNjSIqCIfGtw7AMKYyEoXgVEUOSf2+BlYm3zVOoGeQYQXjBKLdrx0qqC/ZBZOksO4hGMxLFCC98LOvLFhhKCtZskHqUBJa1ZXPBz9jcMv1ClqjsbJX3OIM2Kz7bCyvUK5C/OXl+45bnSQVN9WBODeNEA87t4/Krzp+uzuvpyXv+ufBlvtNHcWjAWq/VJhi7e508fXzyaNu96qTE3OqRN6m7s+x0kA3yINP6BFYmUUYNnwaWPOenDYvuES6+qrm6YQH8SuMTT1dcUVmvsdYiWLKdNjRQ3HLWpqm79aCJ61786T2rOg21+AstUYxlryoFC3JfSxiAkg9syVgAg7g7KZOyBwN4DheABVuyA1u5eGp0qhuMmm2FbwXJMLY290Uvlmd3F5iX4H/6aAmrHswbhxDK6uZUCfXs586AaXmGc3S3++hAJoTQ1JFlOCGSq+qjFqtxh4VY+08x+lYueU962GUp27JTFpE0KFQ8BJNuHGZRhxO+5C5AGL8VsnbUo+ejFks68RTMWkjNRh2J+eUmRDDRKThRx9cG5nzcwaAOJaWMQwS2L7QLSQrTEK1YzrfdYFZDsQtJ7mtTEFlpzRUKSYp9GEyZ96GOfNZmZvgHTtjvaT0TpVic2A4mde/xIEme6wVTelr1x8HU3H4wocfDIcGrvtoKpqQ/YpEkbCqNTiyRqQaT/iPoWx1sApMSahkk+TogsvpTDiSI9M/1YFLSkK6Wi2mITiykO8Acm/4PLYy+A9NaanVja/rRDYjoNI0kIW0WTEscakQCVVsWnVie910m32lkdEd71p4+arlgJ2oNFl2Ogwi2Zv2NBPXSLFiwqH8aPftzdGIpnqsmX2l0kYl3TYAlvdck1IjuHktvoQ0yD8bBkilGQQ2bvy0qsZDpNDeTKa97IWUYLKpmZlBTfHIBwurOIuM2traARfMCEnyfoxNL5OsgsgHKFf7T59ZeR5959ATC+uxDjeJYBKvqX/K6obUhKrHQ+boaItpUpHuPtR4sK9O9Eqk+g3Ce1rKoEdaDkaXJGFEdiU4srKyMOLZajhO/rLA2WIbFYheG/dIXIYm83cku72WhDgE17oq46MRCJ19SD2FtoVGjpoIJTxsKf04d6Qe/hZPFqJHLTQ9kIR3MmEi/3jFyE/ziyRmOuSt3oxQLFfpBL4SRWeGw+kkH2xdZFlS5lRi0V8nr/0y4TXxflhP9PLXjps5yrhQzjHxsozaC0gXU0BtXHIucTC3MImW4yC/2mBlYw9cYL37FvvhMDC1ivEzfvmluhk6UzQysd6MvOPxKevEs09+PHFrU7rioxcJp4UteM4RwT0Y/F9tuppVnaRX3FMCSXLeLaNAAIf2ikjuyeDOt6KWV5MU94u0c9OM+Zaw0FsnNjCaFyLWJWHh7RaaFVjgopMGShz+ypqZWeTpZSUSdN9PKh0sa9+4P+kEY31Q0Y6FodzwofwdG47XEqUfRPVOt/NjJDUF3UFTo86wnyozpgUyMK8O+emHMTkQ/H4VYJNEt750veAgBbjgVXDKjZERu1Yia6U8TsMRGbOKdt29BCFNFXm2g/PgRIogf9SHhxXNYkqyiX+P7hejF8n/EQDp1fWBDKRAaKJGYiqfLxLgiOLPOaEM0v1L7JYct9K1C9GNSI7eikSQ0wJK7j2aIP058lGKRFA/Nnnj1Ie9J3x9dmf/oKEI/4XykVkONSLKTV/nTHOhXvHHrD8HcaqqiiFjPLbbilDuw5GOttiwzMzdWGmvGGbSX5M62Y9belxUvv6o4wRHjYQR0FsK0Mn6B/7QPNcdvvw3uV/Jp0ccRWlXQqFNM7oA6efQrGlhhLOXECUbEoETOWemh/sENEhnbQfPkQ+erwoZ6XSv9zbLBos1l+llKyRDTwRFLJOX3gaYsb3taSd7+cK2c9h7QpJDzIkytMBZVNXFZrkTzlOPdsORpyetsu1sQHjwJ3Yq/kAFk3eMcWkKRs5XlzNECLwhzSUQrAXWm+WQgPC9GP/nNSmNVwMLIMQZNq9zr30xmbvr/B81eeVeBtg6GbQU3s6bREuYk+FW77V5E9NrtU+T2ijTtuAekHqIllbriWJkAN8Z802iSR7s6M5W9tLq4d9lCtUoAnfh8CS2RN8GSW/7XTp3/rVUW2MrJ3wv8sqqIS6i0aMSC5i3EbNLhURVd/s8Iuv1RPI8Wjesg2Uo7XfsbrSDnQbr+QovinvqnlS9CK8j4lZjed11UYgH0VsmUyVhL25AJ8gOVjVdyjK0chlZQutljMVaHduWDQqLWyNdWhu3VveBzIUc5FnSV/05TlkZWosdFhGHfdmSFGFeksr0SWkGcQY6fkFDjlGqOBmm1OrEAxpO/MPwMRuA59XRpx0bGwkGO4SK3gneWt1mXtRmsK5GgODzGbbtBgd0b3W2W33helSK7FQzH6b9gEn+iEo2IVo/BqOm2Ey3hX2kzFssYxrQ9GYyG/0Q/+7MoxCKU3vjwgJMZT+hgiug//Z1/YbkVtCtWj7Pe/6HNYiOiEbkOGo2Qx1mfoxKL1Pw4/fJmTmZ4B8VK3FfOSpZop/ztP/3t38sPWmwFDQJqnFQICnka3u1fsio6dCtHMgTTxpBXI6IWi7TvzuLGdWOn9p44/uvx41l7934ScYmXOEJuP+YetNYK3tBE9/zd74PZ8f6tC5eInl5Y0vdAxuCc5PaK9MpBPB4ysNJYY3EQSn3f1ozHCY9v9fV1uL24RP2F/A6ZfTBoq3NkK9JJcurKuq7ZoB6Sp79MOhC1iE1QmOOroDd4ODFhWXcfZyw+rLxIXM9qJCdvK7jvsNQqnrgp7wr9kEUKeT3rEpC1VCvjCq4SbydKWeNgXQJxVMuvAxMmOIW47HAXNAlnmSCtEkJPqEQu/FYIodqhrYfs3g0AYddEJ58c+pOhutPgZXhMxDI3suo3N4Y6eZ8gahnGlcEzcgvwMi7kEnpn0M8xDLpagmFchWzVRX7YXZhfnViQSp68H5gNVytcqzLiqjIWdUAos5tZ4t/9B/S16LDbK1KvU4suytWrFGuKCCLahyF0LSZMK3gue4ndai6EVEKHnpTj3VEh+PUro0IZ/ZyfmlYp1m/kNTvmZKmxlol1ELp2O9Dv73BPhizavaHnFP7YSZtr1b1TMkzWtQqxMsccxmcFiVoyOa7MPRrDhPtlcq+JbP470Bk/SYvht+3GG9JIJ69WLKiTUcO8ygSdli8vJEVUnC/Ohms1u9uOGjkJwlivosaXAnrjnS9YlygqPHMv3Oqw02m4e7kqsfrfOjHMhGTvSvZIdvb2+TMQRrKAmsbJfRDGgJ085Tk8Edj98x6Kd1Q+WIQwUlXD5elViGX4U3sm4w0rTk/1QDeE07SrEjVCB5DC7vSxqDMOArzLKX9e0Axh5OgmKGGSVjFWL6ugRrX+feXMozJqpi+2QFh1Pi8xlIVksKpvksxNHXi4irFKXzGoEYtHwKKNPhE1QiqEVzbpQY3zWgFYk3lZRoIvGVYjFjkTukZ61AOWNFAcarjIr1jcE1Az6D53BixJIUcmen7cv3qxDBcqB6nWx2DBwBCLBOE8RLK/lkICf3AbWJBeNIMEoRxWNRbcucKRtRznEiy0uqi7mSHd3goRVcteJNBH4sG0atapK717dlVjGaYpGuTvXwWThvWtkL4HkWW+KkKScPAMmHSakpDAvbbBasfat9muq+U+nAemjDxiyVaDTEWzqeW8IiGJP9sOZjycl6eRRBfCqseCnkZOV4ultn+EiMoC3yyVhu6YHCCqiCT74ZFSiGjiCK3o/6hzG75BLEjJ9iKJE3bYIILcOVpEkldNB3PiOgUkDUp//twE4XWN7CpGHcl5Fb5FrOaTquH76YVnIIyM9R4K9bLXlYJJ3efcg0gS5V01+yEMWxXDoo5LqIFvEgv65phB1OHU1g9NIX+p8KKsoF7Rg31gWsEQi3qSMJe+DYLrsl1yMiLq+dYvfKNYcKOVGjQs/sX/5MaDwbukTUE+aM2fuwUWNLidGMAjX5hv/wgGZ+pG2WIFA6hHZ+FbxYJE/2wpGq7Yvnf9VEZZpn+vH/94JC3fwXAYyHH/BlgyUsRhIFZmT80nNe3zr86z29pPX/7E2F0YSNixAb5dLMgdMtZCr6S6ub2vUks+Jye/KVlXlT/tkCUvBml1Byza+CeHBi6PSnk3H302fzr5XkrJpZdZLMNwaER/6YZvGQtydwa9Dy0qkl3OlnlezZbtkiJiEEVEK9PqKBaDEGdYXsiWeUbIZiiny4tBCKPd8G1jQW+4r9h5vRgS/SUDluH5FQpD8Yb5PcXXWQbfOhbcHKUVtIzzHe2HZUm8IHvRMlZum4VvHwv2lfAsWkRR15e97LeO+qbRouLD5QDfLhapYY+goAUzvrM5sHyzG6cZL1rgpI/cgG8ai9RyyeFGs7x847N+WJH2UYFFsxTh4umHEBUJK4lFzmKkerymUrnV0R5Yqea6C3SluVS851ICREnvayUasWB25KzsdmEEikN+kNcFUdC/cY+v0YsRcMWeIzaImh4BVxCLtL/8QaMsiRiSKAnsaF4zREn/57NMMYehuTyC95AtE6InUV5ZLFLzwC/5DpVVvGjgVTyqO/+8rQuiaDzv0PEiWRK9wY6K3QL7e8oNIHzjWEbvGlJ/lBwCz864xP9ycSwvOLgD5xfjIeqa0i/lexjVLSnE7zUygttV0WF7CvDtY4W3/87Is1e1yHrc/4dqZI//+Or8yONx+B95V7AltSKfW/o9lv104HJbQ0szkFY/lnlxZbeeDD+vrq5+Xj1w90xZHPyPNW9rac/55/caEh9vHQfCqsb6buWxvsf6D3xnOtYm+M766yjffY+19mPFZqzvbOZjfZdkPtZ35f+bWJn7+jIKhgcGhgsy+v5fdfcB3cSVLgD4N708ON42QgLSbFmr5KRIdopFngljqngmoe2hp1DTCzU9sPSa5ofh5NCetrCcjbstU+yRG8UalRkbhuJxN9WYDtvT4/+qeYos/L7DqdT5uf+dOzP/vf+fo6HDpWdkZmXnfCs3L9+eBB1kGwqW/tdp4YjTvcvnb13/9J7pqZZvWWfsGTPiqVX97k3qsDgV7D9w8FBhURHjYByO4qKS0rLyw0fsHR0sy6xxoNLcz/eN+GS4NkVjMRis3zMYhpvMZstvpsxfEQ1hZ885eqykwsm6GLfb8x23m/FyTt5debAq09aRaWh5XGWw+g96KFVrQoeHoAOfYrVLd4yeCuFkO36issLpYjyCr2K3g+VLTp463YEj6/ENoMIrjy4ya1KpoAwa7Z4nXoRwse8/w1R7yUBhxYzIVh7NgzBaSKThUBWhmqJpv+9nHG2ZuAzCoaaqVuTcQmjF3uq6+gYIm346tC1kz8ug0IqJJp2VksCaqN/bH1RrbOJdxYIETHXd0XwIkw8oQ1ueTP89KDK0ZzstUrFU86JBKufGzIMc116oULgqmyE85qHDc6z65aDEk3+VV31gMa/5AFQ4Vch7BBlc7NlzEA5pczSoHHYVyBc1elMsJZNu0VgbKJRRz1YI8niqz+dAODyPDuSgtypIwSfMcZRsliFvrANF8pqcHkE214WLEAa70Qw/fmAayPTx2s2/pRSwbp7yf6DApUJRUKCF4S+ng2qDE9FKaEZ/kKfrdjMVkEEfk0jrdLTOpA+y9EqZ8BHI1njB1RJ4UVXBsaz47Q/O4Qmciq1XakCtSXvaJudkeqXMspLHAh0EZYjV6ahfr5+95I03lsweNobS6WIMAVvKfiQ/VhUBYsWIIldSevXa9fIbN8uOVTpE0eUJEM/qkxmgUtQwtGPJOMUGMmxZ7R8rq4mesf6lh/v/9GV1bpf+D780bEaKJoHylYijJS1WXr9YuUW2sOzWpYKMJPhezbms5vraCtYr+Gm9rjoTe9JK8/Ce7Ua/UOn0O3ps8Yt4dP/598cY/ZZi5rVDQYbj/uOK4YuuNWeCL/u3T42i/6rVecMG6ryoRzO0uSdItnFNos+4StDpJwYrlElbPnt8bLJvtJbMBcnyCn3nKzd7u7wBAjt96pjo8s1E/g6os+45DUWcuSRV3wEUabxx9jII4ZU1Oj1FGvACSJXRxPrEinPUF0Bw9lOl1W7fnG0GTGX/HvN8kGilzxNOQsrbI6MgpLljH6QpgkH6EQv1rQLW4nY2HYfQTh91cALBW5IHqnwQl6qgj1bXRcPJyzY/Ok/CvddnsyQ1Xmrbz2bWQ8TK67pjh3ZlV/JkiNlDNaBG1E4jJXvWmrw+kdwqGb8vCiRIu08XR/b7nS3l99nOFVYQF83d3g9SnLvp8xzpPACqdNfhV07S9uGu0ibjS45f+ghINFZvoZBkaed+XeGJWInnc0Ga9HIyWkxdVvimeMo4LA3ateABPRGractBspFktMY/3QXa1ch5yFjlgVRJ5dVEtNiyKLXvlhHzPmjXVi2FWDY9DDKMjP+Skpf4Ncc4IgelxApFi8UrrmJ2P6ixgRhaX25aCO34DHdHolJjR4Isq4i3qnG/mwrtqOKLUawqbsvLpKQbTgHhjqWHcWhpZvaX0hhZRevMrVpZPdbtpS68WHLJHRr2Q2ILGlqiuqE1eZiROJjinTchlP6LDOhX0zsng0zjHjLiLP7NPAipmcd55DwKcuXd9uKh9bdoUKMf+SKFDn0yzgtafKkPTgLZVnwYh4dW6Fky6m8cvlQlK6VTIgq3h8sGZVBiICmhojV0lh7f+v8LFNiNE1kzcB2EcAR/RmUuHAf5kspEfEO8orL0/m0NhdFrg4+XR/C6LEbZoUEbfx2PdtmYFkIIl/H8zNeDElkXGBTwkkxQZXCMgWy+9PYyCMz2Kxo9EcY+DIpsS0yW+PLfXunF11kAitTzOOJVoM5XmykiWpoPxyZBIG/hbgqx66MVroQHavDCdCgElVPhQZdZDsrk1aGhxZWBOuN20OTrqbjEvW8FzEIjGhNDngWF8NF0Cainl58TTvywkgcKXWGFnzkKz4E6kx7UkNFKSFm9cnLoe4EeNd+V6S3cxJfuCcGkH0OLLPEaKJXt8qheaiHd/E7G0dMjFtqAlIZPDaVfAMX6oPcWpvW2oPlThPJHxUXWlLrItZpK20xfUqTkWM2UhdGAfTTDSjYIUKo7OoRoePCTqPejZ2hGTfocRXnIXQXVeqQY/D9BxK9fiY8wXI76EenROb+y4RuF1fIkBHGnFQ2sMhsols0Vo0nLDqrt1v4cLbQK0v1m8TNTN8APRqN7fkpvUAE3EN38CCCoDaftOlpOsrdAuXOFjrbny6I8UG++yUL5i9MZkx/q1XPsyG/tiG9L0sRBQMg/fPDkjap88JN75/rN8pxoIPRMQd8QewIh88DZsh8UonmZOw4qXOXa/iTXJQiDL3ahtoRtklM1KUNiNCaTKQ61GdUvBKz5PM+LPH++GUj2ei/PstXcmQLARqKVXezXgJ267eTFH7hbwrXyvozGaGszhMPgB3RUEMkJ38LzmXUqIFXsD/ebCrYKsJqyv7uFb3mclcTFLjNY0e0QkP1ihRBARa0dVPgHmuH5WxAWKyZoJRbGxM3qQqyRf7pCL7l0vNX608zaeg1P0FtQmYUGd8HOqORahAC4qzZQoRHfDi9DeHR5IlFPSRH/HF6Snmi7bTlPAL70n4eJpyIX2tz7uCXw6raZFwJir4Eax1Eauq5AuGwLfW4R6pyJ35O70Ou1dFRShYqA+ItEPypL4E/h9awQkHgD1GgocndEsGBSn1hTsrxg2Uu9bZNLaQYaJ2h9I+IhFz0wHq3YULCuc0GCdaITBQt7eG3oc4twm1G/YLlK7Wi2dqFgHcCP7mP0gYN1JViwyjtpsGDDyu0pmtAzffxD6A1n0jU28ORSgB7u+P1km9HAaXjAGWTOug5q5Do84Q0WNmrbBE1KXIjhNfzTofh+//PHzGIiJrZr1T/PZZUZuKx8lgWVs6KMznIwgYNVBmpk8x0ywaNzi35D05Zg48vwF/zCK73s7z/GqrUsnXyl+2NaMWwzIB9Mx0sHQG78XcDwfUOFZhZl9B3oAPO+2DtrvHmI3hDgtFGr5XNATp/5O+fxuLnWM/lAaLztdHg8DF9xEbCHjW3/C7GzAck/9Hev50e4YKgyH1S4g1fwh6FjdOn2y4m/nm4x0QPMuiE0Ovs+wTQSsJqLTR5GaPpHOvjIqy9kmJKb2UAYPYBoPo5lHD3PMO7vMMV4Z1wDqIAfyZ2N0HFGLej2zL6v+i5e3Ps5A/pi9gKQagqOFNRAAKcbcs+Bj17oucqvmc7prCPfyT3yN/TOTlWZQk1p2zOUh8mFSNiGGl7GqNlVnYZWDsn0wxBEuTNMa4eGOjd6JM+HSPgctXMyLPoYFHtxqQHdKrpCEIfxPexYDShWxaPZrzQKImEoWh0l6FaCYoM248ZBGyCI44wnPNlzjUP5fAMiwjY7ETdYt4FCc/8QL+noroxCBl3kHVAqs4RB8/s/IDL2paDSrKVdQaF+49GzunYbBHWdRXlYmgEK3UJZ6PbkQmR8Hoeukv4KFOqdgvvQbYGgDuOCI7E5HF/CKkrTITLSBqL8sexRNsWTDbRiRyQBhP5wqLa26hRbrP6zoepdBgqHVm9aahM921UOrUsVDq2aWjSwPN7jECkrcB4aPvxMWfUcbh36wMuSKkrxrCV/xsIrkHSIlKQRuMhRNyUKZBt3P241lrgYQskvdOAqyTsgX0EJ8Ufcgsh5NjFZXekf2aj4t5pXAAtcR6Om9C+6jBXIGprI+d+BGqLt56sg0yu7DMQ2hbkyaqtauNLT8pMQV/BWX4ZIWqklO7u9CbJMXR1P7FL8o4SyPaT6erTcHbCMQNZ4RdK45zQUQu9cBzK8eb+OkjOw8NBSUv6Xe5vY1elEvztisxaSslhGtO7dQVOINaYfYMFmLcTDHwDp8s5zOFbeSM1YaNsdccHJm5cMlTyuyFhR5q+hfacrXQLi5o4mSR5XKFYRfSzEu3csPs2lPgJJuv6VjJX+wQUK9ma6+Xq7xPnqNhGrFvFQDUTcaG0yhdGvLwQJus/UkcVfic+AJNedAlbsPCRlmk6/5SB37DMXciHy5u40UwSNZfdGaEeX/zb5FDSZpfaCP+dbLMLePtXub807yTMtRIz5i3A3LHhcQxEM2gnLIZSoZ7ebU8li+9iBXUCi7AuMgLV4xZtZEIr9VglbLBD46zaIILyytFCkGE2IQ+qiX5kSq6FI+t/9XubKEitm68rzQpxUUMs7BEKLWHsa7pKVOoNfta5lyrP/E/AeuG29xphAkSwx3UGGy62CD4avO5hTAwEU3CplXQKpxXW7Ae6a3f7d+qxG3Wtv/PGjJECSpnbv83aiye/XfmkaC3Kkn20VfDGsq/RE9jnAarKqrpX4nwnYUoGfKiPO9lKKlfKVrNfRv9nRd9Uf+63o33VFv+6je+3YQ+uGB+pxuA/ksZ9pFfx4Kliu8urlfzReamhoOJLdfOB6bRHPofmtLVaNcFe9hFr4InEmo46mrTNmWGlaZ0RbERCLZj7IlXGy2iP4K3ZwIsuLRUVFDp4VOZdb8NfiutuxAtv8WD0VTKrBkEoF8V78rpUg3+Qb5PEyWLHbzZChxMTbx+Gue+RdE6UAPW0wKBF9VPS2CLIV87UN0Am8uH1zAiWTVbv2M1Co+bao4MS/s6ehU7h3r3E8JYvG+NRGUCzrkJORN7jEuotR0EnYRj6uNVCSfal9fTCoYT9wgS0WJPM6D+VCJzLvKYvOSkliSNl0372gUu5JkROkYZyFF2ugc3lxikZnkBAqOm7vClAvan9TNecR2uXg68ozodOxLZxoMOtDTvUJevOHez+H8KhpPsSxjBCKx+UsLG+Azunz+5420sODpKNVTxvHvP8ZhE96ztmSag6XUWLuimrvsVuZ0Hl16b738fGbY4YbrEScvtQbB1ie3jp4FIRZZlVZoejkHG4iIz2MV3R6ao9eSodObujCfbMf/0v8ALNR8z2dVmvZM2bJoG5/hg5xbv/Rq4VFrlaec32PbeWZktIb/ziSDv8/pH28rPuqF3r36dOn99cv9ej+4ry50KHsednNty5f+d6dw425+VHQvm8AyMyZjy3COasAAAAASUVORK5CYII=;" vertex="1" parent="yK2G3_Zb7iP9LqbmVMu7-44">
          <mxGeometry y="0.9399999999999409" width="11.87" height="11.87" as="geometry" />
        </mxCell>
        <mxCell id="yK2G3_Zb7iP9LqbmVMu7-35" value="GitHub Actions" style="text;html=1;align=left;verticalAlign=middle;whiteSpace=wrap;rounded=0;fontSize=14;" vertex="1" parent="yK2G3_Zb7iP9LqbmVMu7-44">
          <mxGeometry x="18.940000000000055" width="129" height="13.75" as="geometry" />
        </mxCell>
        <mxCell id="yK2G3_Zb7iP9LqbmVMu7-45" value="" style="group" vertex="1" connectable="0" parent="1">
          <mxGeometry x="339.75" y="290" width="150.94000000000005" height="17.879999999999995" as="geometry" />
        </mxCell>
        <mxCell id="yK2G3_Zb7iP9LqbmVMu7-46" value="" style="shape=image;html=1;verticalAlign=top;verticalLabelPosition=bottom;labelBackgroundColor=#ffffff;imageAspect=0;aspect=fixed;image=https://cdn0.iconfinder.com/data/icons/phosphor-bold-vol-3-1/256/git-pull-request-duotone-128.png" vertex="1" parent="yK2G3_Zb7iP9LqbmVMu7-45">
          <mxGeometry width="17.88" height="17.88" as="geometry" />
        </mxCell>
        <mxCell id="yK2G3_Zb7iP9LqbmVMu7-47" value="GitHub Pull Request" style="text;html=1;align=left;verticalAlign=middle;whiteSpace=wrap;rounded=0;fontSize=14;" vertex="1" parent="yK2G3_Zb7iP9LqbmVMu7-45">
          <mxGeometry x="21.940000000000055" y="2.060000000000059" width="129" height="13.75" as="geometry" />
        </mxCell>
        <mxCell id="yK2G3_Zb7iP9LqbmVMu7-50" value="" style="group" vertex="1" connectable="0" parent="1">
          <mxGeometry x="364" y="240" width="427.8699999999999" height="20" as="geometry" />
        </mxCell>
        <mxCell id="yK2G3_Zb7iP9LqbmVMu7-40" style="edgeStyle=orthogonalEdgeStyle;rounded=0;orthogonalLoop=1;jettySize=auto;html=1;exitX=1;exitY=0.5;exitDx=0;exitDy=0;entryX=0;entryY=0.5;entryDx=0;entryDy=0;" edge="1" parent="yK2G3_Zb7iP9LqbmVMu7-50" source="yK2G3_Zb7iP9LqbmVMu7-36" target="yK2G3_Zb7iP9LqbmVMu7-38">
          <mxGeometry relative="1" as="geometry" />
        </mxCell>
        <mxCell id="yK2G3_Zb7iP9LqbmVMu7-36" value="Compile" style="rounded=0;whiteSpace=wrap;html=1;" vertex="1" parent="yK2G3_Zb7iP9LqbmVMu7-50">
          <mxGeometry width="67.75" height="20" as="geometry" />
        </mxCell>
        <mxCell id="yK2G3_Zb7iP9LqbmVMu7-41" style="edgeStyle=orthogonalEdgeStyle;rounded=0;orthogonalLoop=1;jettySize=auto;html=1;" edge="1" parent="yK2G3_Zb7iP9LqbmVMu7-50" source="yK2G3_Zb7iP9LqbmVMu7-38" target="yK2G3_Zb7iP9LqbmVMu7-39">
          <mxGeometry relative="1" as="geometry" />
        </mxCell>
        <mxCell id="yK2G3_Zb7iP9LqbmVMu7-38" value="Static Analysis" style="rounded=0;whiteSpace=wrap;html=1;" vertex="1" parent="yK2G3_Zb7iP9LqbmVMu7-50">
          <mxGeometry x="90.13" width="98.87" height="20" as="geometry" />
        </mxCell>
        <mxCell id="yK2G3_Zb7iP9LqbmVMu7-49" style="edgeStyle=orthogonalEdgeStyle;rounded=0;orthogonalLoop=1;jettySize=auto;html=1;exitX=1;exitY=0.5;exitDx=0;exitDy=0;entryX=0;entryY=0.5;entryDx=0;entryDy=0;" edge="1" parent="yK2G3_Zb7iP9LqbmVMu7-50" source="yK2G3_Zb7iP9LqbmVMu7-39" target="yK2G3_Zb7iP9LqbmVMu7-48">
          <mxGeometry relative="1" as="geometry" />
        </mxCell>
        <mxCell id="yK2G3_Zb7iP9LqbmVMu7-39" value="Functional tests" style="rounded=0;whiteSpace=wrap;html=1;" vertex="1" parent="yK2G3_Zb7iP9LqbmVMu7-50">
          <mxGeometry x="209" width="98.87" height="20" as="geometry" />
        </mxCell>
        <mxCell id="yK2G3_Zb7iP9LqbmVMu7-48" value="tofu plan" style="rounded=0;whiteSpace=wrap;html=1;" vertex="1" parent="yK2G3_Zb7iP9LqbmVMu7-50">
          <mxGeometry x="329" width="98.87" height="20" as="geometry" />
        </mxCell>
        <mxCell id="yK2G3_Zb7iP9LqbmVMu7-51" value="" style="group" vertex="1" connectable="0" parent="1">
          <mxGeometry x="343" y="350" width="147.94000000000005" height="13.75" as="geometry" />
        </mxCell>
        <mxCell id="yK2G3_Zb7iP9LqbmVMu7-52" value="" style="shape=image;verticalLabelPosition=bottom;labelBackgroundColor=default;verticalAlign=top;aspect=fixed;imageAspect=0;image=data:image/png,iVBORw0KGgoAAAANSUhEUgAAASwAAAEsCAMAAABOo35HAAAC9FBMVEVHcExQgL1Kfb9JfL5KfL1Jfr9Jfr9Jfb5Jfr5Jfr9Kfr5Kfr9KfsBJfb9KfsBKgMNLd75Mf8JKfsBJfb5Jfb9Jfr9Kfr9Ng8dQiM5Ph81OhcpJfr9Kf8BKfr9Jfr5IfL1LgMJKfsBKgMJOhMhOhMlMgsVMgcNLgMJLf8BOhclKgMJJfb9LgMJKfsBKfsBLgMNLgMJNhMhPh8xNg8ZKf8BKfsBKfsFJfr9Kf8FOhstMgcROhspKfr9KgMFZkcZIe7xKfsBJfr9PhstKfsBMgsRJfb9Jfr5KfcBKfsBJfb9Lf8FKfr9NgsVPhsxIe7lKfr9Jfr9NgsZLgMJLgMNJfb5GerlLgcRLgMNKf8FJfb1LgcRKfb5Jfr9LgcRJfb9Jfb5Jfb9KfsBJfb5Jfr9KfsFGfLpIfb5Kfb9Ke71IfbxJfb9IfL5LgMNLgcNJfb9Jfb5Jf71LgMJKgMJKfr9Kf8FJfsBKfsBLgMJJfb5MgcVKfr5Kf8JJfb5LgMNLfb9Jfb5Jfr9Jfb5Jfb9Jfb5JfsBJfb9LgcNLgMJLgMNKf79Jfr9GerlHe7tLgcRQh81JfL1JfsBJfb5KfsBKfr9LgMNLgMFEeLtJfr9JfsNKfr9LgMJPh8tJfb5Qic9Kfb9Jfr9MgsVJfb9Kfr9Jfb5TgbBJfr5Kfb9LgMJHfr5LgMNJfr9Jfb9MgcVLgcRKfb6Fs96Dsd6Es9+Es96Fs9+FtOGEst6Est6Es96GstyFtN+Fs9+Fs9+GteKGteGFtOCFs9+ItuOIuOWGtOCFtOCFs9+Es9+GtOGFtOCFtOGFtOCEst+KuuePwO+Nvu2KuuiHtuKGteGJueaLvOqOv+6FtOCFtOCEs96Fs+CFs9+HtuOFs9+DsduHtuOOwO+MveyDseGGteKHtuOGtOCEs+CEst6Ht+SFs9+HtuOFs9+It+WJuOaFs9+Es+CFs96Fs9+PwfGFs9+Est+Fst6Fs9+Fs+CHtuOFst+It+SFs9+Est6Qw/KFs+DyYsmOAAAA/HRSTlMABBw4UWJ+k6+0sqx7TjYZBi2NuuLy///////giF0oH5rX9P/////////w1ZdaabTt/////+yvSKT////poAMZcc/////JbRaC5f95F/8QZt3/1bouC/XIwzHy/fzu78GcRpi+2gkmhiotUkTj5qYhJOndVfi3vPxL9/+VPPkrLPRYPkB2gOvM0g/MDhT7/zTnOkJ0//8SqQxv4P+f/9LG/Y/3HgHZYI8Tr/mK/9myCRYpPFBVQTMeES9ji7DP7/z////24MOeeESW1v///////////+dzSZv/wG8bxv//Ddv4pzhb02mzI+b6f03/ov+zyr24rruF8ZHP/3sC67hSAAAqrUlEQVR4Aezd+VvT6P7w8Q87KEVGh09IFLc2TaMDY9MwQJAtBYRgQBRUHFEWQQdUcHBFUVEUB7GggCKDO6Kj4/kbH7/zHJo7TZcEevAq4+tnL5vrzZ19uWE54uITEpOSU1LT1n2Vtj4lPcmWsSEOAnyX+UPSxk0/ZiGVTTPUfzF0NoVZm9O25Gz1F/tuW872HTvt2Q7WyblQx8U5WT6b2rX7p9x4+A625f28xy14nCKG5HJStD3/l6R/ea/MgsL8IkYSMSJRKmb2lhSUwr9VWXkFK0teNEmsFNiq6n3wbxRfUyu7FbREsRdtrtsP/zb7ampVD1rn9aib6+rh3ySu4YDQiMvkEQ7mwL9HwiGGwhVw239ugn+H5prDsogroqi70jPhXyDjiODEsFzcVxFyVspHW2DNqz5WHPpYiuIZRlY9vx7/9VdKLWIYngp5sCrKrUmwttWXFLMhDqIcsvvEjpNt6Um29oSvCmwNyR2dp7Icsj3EoVijvaML1rDuI7QSrBRbzOd3nrad6YIAzb/1bDm5h2FYEY044eg2WLN6z6poxDHuc+dz+yCk/pz1FxwMhwZe+vcEWKMGWnk0kOiLl3LKIIL4pMtXVCcaMBeuwpqUc40aNKbKup4BptzYvkuVMMCg+3AirEG5Q43GjU7W9Ztg2q2U2yqHAahja7BWjqGVyFwpuQmWtJznGG9grbU3toavBbaS5KN3wLL2I4JkqHUV1pS7rRTqMTtHMmEZuu4N8ahnv58Ba0j/WX4QSYowmrDs8A8EBUmDzIF4WDP+GFP1rSR++0NYtvFCxok69MlmWCsKaS+SqEflsCLJlR5dfdHXAWtEHqPoj41abbBCuccoXS3OngNrwsROVr+FmXwMK/bkvl1Xy7PnFqwBXVXFulb8ZAZEwd09Dl0toTMOYt9pQb8Okq1WVosia4lFUxDzJoacSKB2ZUCUPDnMIoHd9QPEuNKT8iBqpEc2CKq+b9u2ZrAml51GgnAJYlxSkYiaGb4cgugr33Rq72TtwXV5/WBFsqygRnH3QEx7esCNBLUNjB7WXBAYimVZipHv/7QVLHgmIMGxuxliWTKNhKKKWTD4bdTH4hIpuzX5DzBtfIfuNEp9DjFs/6QHNZXHJsCgZU5FEiscHADT7up2H9SBeohdyQJqxD9HguTcoWIAu6ew2/KBSewPrX21HtQwVXFgMP8CDRT1fl0mmNO827FGhtZzFTXc0A0weHyFwyBYdawAzLkqcahhkiBGdb20o0aYB6NCHwblZa5s3wampApkrFelEJtslIJ+0u1+MNi3l8UQOHrO3ChpuuhEv5nXTyA2nVdRo74Bo0RWwZAo5tIEmJDyJ2qENohJ205IxMDK6gOj0zKG4ZKP1TRDRFvfTqMfW7sPYlEDWYJOgSBKfOinONFAUkevQkSFAvp5+WGIRWnF6MddbIEg1slaq6wTzAwG8vLOkniI4C65S5XPQwx6d6IS/ZhNECGWZ3dLCeVAA06Yy4HwFl7x6Nc4OQ6xJ8ch4hLRnQPBpBKx3mfCwEHaiQaU45dbEFY1cZta8dgg9szT6MfuHYcgSi8zRKynAE83XisSgxzR7ymPgzC2ZUnoJ7yBmJO5wxNxQ9I15tbHArhzVGbRgGUOTUAYaQz62ccg5vz21olLRD7XbCyIK78vKBhIlHeeng234xWJg5R+iDWLDhcuqTzxznQsgK3PPO5gRxFH7kIoW287cYmL6oFY8yYb/RydYCEWQO7vwTb0/NCHpxDcQhWFfr57EGs28egnn7YWC8Y/DDFeDOSkHxRAcG8E9GPWQ4yJ28ziEtGeaC4W4cmrYBt6/tFPHyGYxWKtLbV7AWJLPLEVkbK2Wo4FXXX3BRcG4rIfTEAQE8TuRMp/B7El4TiHS6j3zaZjEc785abQQN5zF4zqa1kt6KfHEFsS3dqw4DvBfCzS4hzNYYBB+55gLarsuMTlGYDYspiNfkzbMmNB/PUrjKGWfKoMDM4z6JedB7Hlno+IlQ7BLXTy+lhG7aNqJQbI7gh/ZYyugdiSUox+RUkQwjo5UiyYvbdTFVHHebEJAlULMXx2mEqhn5BoPRah6Wfeg6RgVxJzyNX+PMSWNIrY4LZbi2XQcFblkGA3PtTQY3fFbqx1WizueMIKY8G2EkkaRD/u7U0I0DujfI+1ZHjPNPqJ1A0I0M59j6V5Rn+PZTZWQyu3dmORG3iqYKWxmv6iyG2W03iyOcCLWqxnEFvWu6N26ADNybsEBQn8WGbYM4bCWD4obVhRrPYjKos69GkINBXLB6XJ5OlO8gpibWtzMqgn7eyHQJ/l2LxUalwt5pcdayHvrPHCQ/ZpMHgWyyfSNoq4RHMyzB3+sLEmgnzhZ1AYexj2Eo3C9kBsySAu/nkO/AFBZVa5w8Wq/3w4yC3XonNnwGCcuPg3/SkBYsuGLCcucd7+YTnXswYOChIGEoW5x2CU8IkjLitvgNhSeoBFP2bAeqz+QtaBBqxwqA+CaBAwhm9YQBp5K+yz1ViZU/dVLtiXjUJ8NqtDxpg7JiVszEY/+yuLsZ4cZVg0YIsOtYQYxxUU+mUnQ6zJIe5YSCf6zMQibrEGe5ZG2PM8DoL7gbgTpry2Qaw5Qyw/MjkWYi3+LjjRgHL/1Q2hVKtIPFixDWJN3G4P+hWvh2DijjoMsX77y0EFfdB70eSzAvYqiD0dNPr9nV8W+Qi+/p/70K2qggaMtD0eQusnbn+j7zPEngFio+VlGiLGOtAMUDAm/I0GkhDhmeUp2UscvxdA7NmvewC3M1IsZWi4aZ7j0UCUL57+A8IpHbOjX2PtU4hBqUXkW04JEESajH6K91eeQwMPcygDwut9PYN+8jzEoiTZFeE1J0iVUaMEScWpZ/MWrLz867UPQCwqy2eROD+8CUYd2RiOl3GW9EEkGUNEZc/meohJJSpqfG1gNMKLGBqrHmm3+la5kAKx6Yk0QwytnTfB4O60ghrDEXtdF4C1gcUNZUBsihvjUfPnejCYfU9hCA7q2VYwY5OM5F53AWJUAyOiH/f6KhjU+DAoVnjQA6YMk2+Aiu5hiFVPf6RQwwT5qkN8LYVGM0Jr8iyY8vGAHTX2HbMQs0YEJNCfwWBR5jAQX3n+poWTKkJRHsSuj7qhNT10FwzaXiiB+8CKRDDLJpGt7e9nIYaVF3tRw5/aB4Ey51VWd3nhXHkzmPVuzo4akWmAWNa8m0cCvR6M6o75KvEf3kph6Kc+MK30Eo0EZiwTYtqAW0GNqN4Do5aSCzwjyzLjuF+SABa8UUUkd7cFEOPShEHUTFfmQBB9uRvXXVq/cbgPrMijOCTQ5yHWndnFIoG91g5R0vNIQkLjhT6IeXWCFzWDVOtdiIqrxzzkmFWKqyH2ZZ4sCnidJCq1CgI+6yqsW4A1YOseT0CtAlixHn2rQfu5d7AmLLo5XS33tUVYobxHnkEkTL/ugTUihfbqarFsDaxE6QdK0rUS6dOwVjR30qjDCX9tgGXru0RzqONblwlrRtkXGXVE4ctVWKbE3wUv6qgv62ENaTnnRj3HlQ9PYRn2/SQZ/qu5blhTnuykUG+aftADluUeFDjUs7cmwBqTeJjCAA5PWgJYcueQ3Y0B3K29QFiztRT5eGEGmHbjmUtW0DCu2mENSjzmxkCc8OlZ+wKYEHf1r+NCkKuq93thTbp7TkaDadlZVd4PEWytq2BlDg3UuQRYo5oO0iIaKHZ118/PWxYghIWJqUu7VLeCBiI92g1rVhl5OEmQGGFnxU9JN/ZDgA03Gra/fCvwTgzCKaz/CGtY6UaWwqCclCx/mqxYn1K3mGPr7bXlJNW9SX05+asqU9MYlPtRDUQUf2Mg7971tra2+ZTkvJ6MePjfiut/klte09H21ee6RVtLPazI8FlBxBA4luKLVNrXqCiebFqVeYrlMASFnrNBWKUZefMVk8ftPpX5P0VqtvvT5Nj2RXKFj6aHT6ZSd+SLMi0z/0dWafb25pMbh/th+bp/ZhoxPGVmxoXheRzr30EYme0fKi4KjJsl51gWp1l3kXy7ouZOHETZR1vJAYXmKYnzkp9e9djl4j2dIy2wXAvV9+kZXBGOPtcAYXSnv6wU3BwG5XQLM2NTfRBFEx82U7JnBoPxSryw8/LiH8seXIV/8yIumxjhk95N21t1O08jzi5f+HAGouTqX0OqR8QwnAxzKn0/LJNtlHHj8njtjqPtENrW7TsFCSNihWPX+yAK2g9JMoeReCl1Lv0pLE9zw3vZLaJlLodckZMJIdXXtNJONEWiL9TNwgr1lVyRFTTFI5zKgWX6WP7SznBoCVdkr2p4CKHZDgosmsYKo3dhJRbyLvg4NM1O/dUNy9Q1fPmK4HGhSQolXEzryYTQZj9IPFrCXKvJhGXb9hffiFYowoUkWLbHHw5QqkfBiGYoofH9lgwI5+YRmkOLJOFQPyyT7aygoEUe6nozLFu9bftmiXazSphQrMM3c+D61VkIy3auCK0Thbk7sCxTj+zLOuo52gcrUF9Q8+qCxA9iIHHGyVKyTznbmd7bDBE0XHNjSIqCIfGtw7AMKYyEoXgVEUOSf2+BlYm3zVOoGeQYQXjBKLdrx0qqC/ZBZOksO4hGMxLFCC98LOvLFhhKCtZskHqUBJa1ZXPBz9jcMv1ClqjsbJX3OIM2Kz7bCyvUK5C/OXl+45bnSQVN9WBODeNEA87t4/Krzp+uzuvpyXv+ufBlvtNHcWjAWq/VJhi7e508fXzyaNu96qTE3OqRN6m7s+x0kA3yINP6BFYmUUYNnwaWPOenDYvuES6+qrm6YQH8SuMTT1dcUVmvsdYiWLKdNjRQ3HLWpqm79aCJ61786T2rOg21+AstUYxlryoFC3JfSxiAkg9syVgAg7g7KZOyBwN4DheABVuyA1u5eGp0qhuMmm2FbwXJMLY290Uvlmd3F5iX4H/6aAmrHswbhxDK6uZUCfXs586AaXmGc3S3++hAJoTQ1JFlOCGSq+qjFqtxh4VY+08x+lYueU962GUp27JTFpE0KFQ8BJNuHGZRhxO+5C5AGL8VsnbUo+ejFks68RTMWkjNRh2J+eUmRDDRKThRx9cG5nzcwaAOJaWMQwS2L7QLSQrTEK1YzrfdYFZDsQtJ7mtTEFlpzRUKSYp9GEyZ96GOfNZmZvgHTtjvaT0TpVic2A4mde/xIEme6wVTelr1x8HU3H4wocfDIcGrvtoKpqQ/YpEkbCqNTiyRqQaT/iPoWx1sApMSahkk+TogsvpTDiSI9M/1YFLSkK6Wi2mITiykO8Acm/4PLYy+A9NaanVja/rRDYjoNI0kIW0WTEscakQCVVsWnVie910m32lkdEd71p4+arlgJ2oNFl2Ogwi2Zv2NBPXSLFiwqH8aPftzdGIpnqsmX2l0kYl3TYAlvdck1IjuHktvoQ0yD8bBkilGQQ2bvy0qsZDpNDeTKa97IWUYLKpmZlBTfHIBwurOIuM2traARfMCEnyfoxNL5OsgsgHKFf7T59ZeR5959ATC+uxDjeJYBKvqX/K6obUhKrHQ+boaItpUpHuPtR4sK9O9Eqk+g3Ce1rKoEdaDkaXJGFEdiU4srKyMOLZajhO/rLA2WIbFYheG/dIXIYm83cku72WhDgE17oq46MRCJ19SD2FtoVGjpoIJTxsKf04d6Qe/hZPFqJHLTQ9kIR3MmEi/3jFyE/ziyRmOuSt3oxQLFfpBL4SRWeGw+kkH2xdZFlS5lRi0V8nr/0y4TXxflhP9PLXjps5yrhQzjHxsozaC0gXU0BtXHIucTC3MImW4yC/2mBlYw9cYL37FvvhMDC1ivEzfvmluhk6UzQysd6MvOPxKevEs09+PHFrU7rioxcJp4UteM4RwT0Y/F9tuppVnaRX3FMCSXLeLaNAAIf2ikjuyeDOt6KWV5MU94u0c9OM+Zaw0FsnNjCaFyLWJWHh7RaaFVjgopMGShz+ypqZWeTpZSUSdN9PKh0sa9+4P+kEY31Q0Y6FodzwofwdG47XEqUfRPVOt/NjJDUF3UFTo86wnyozpgUyMK8O+emHMTkQ/H4VYJNEt750veAgBbjgVXDKjZERu1Yia6U8TsMRGbOKdt29BCFNFXm2g/PgRIogf9SHhxXNYkqyiX+P7hejF8n/EQDp1fWBDKRAaKJGYiqfLxLgiOLPOaEM0v1L7JYct9K1C9GNSI7eikSQ0wJK7j2aIP058lGKRFA/Nnnj1Ie9J3x9dmf/oKEI/4XykVkONSLKTV/nTHOhXvHHrD8HcaqqiiFjPLbbilDuw5GOttiwzMzdWGmvGGbSX5M62Y9belxUvv6o4wRHjYQR0FsK0Mn6B/7QPNcdvvw3uV/Jp0ccRWlXQqFNM7oA6efQrGlhhLOXECUbEoETOWemh/sENEhnbQfPkQ+erwoZ6XSv9zbLBos1l+llKyRDTwRFLJOX3gaYsb3taSd7+cK2c9h7QpJDzIkytMBZVNXFZrkTzlOPdsORpyetsu1sQHjwJ3Yq/kAFk3eMcWkKRs5XlzNECLwhzSUQrAXWm+WQgPC9GP/nNSmNVwMLIMQZNq9zr30xmbvr/B81eeVeBtg6GbQU3s6bREuYk+FW77V5E9NrtU+T2ijTtuAekHqIllbriWJkAN8Z802iSR7s6M5W9tLq4d9lCtUoAnfh8CS2RN8GSW/7XTp3/rVUW2MrJ3wv8sqqIS6i0aMSC5i3EbNLhURVd/s8Iuv1RPI8Wjesg2Uo7XfsbrSDnQbr+QovinvqnlS9CK8j4lZjed11UYgH0VsmUyVhL25AJ8gOVjVdyjK0chlZQutljMVaHduWDQqLWyNdWhu3VveBzIUc5FnSV/05TlkZWosdFhGHfdmSFGFeksr0SWkGcQY6fkFDjlGqOBmm1OrEAxpO/MPwMRuA59XRpx0bGwkGO4SK3gneWt1mXtRmsK5GgODzGbbtBgd0b3W2W33helSK7FQzH6b9gEn+iEo2IVo/BqOm2Ey3hX2kzFssYxrQ9GYyG/0Q/+7MoxCKU3vjwgJMZT+hgiug//Z1/YbkVtCtWj7Pe/6HNYiOiEbkOGo2Qx1mfoxKL1Pw4/fJmTmZ4B8VK3FfOSpZop/ztP/3t38sPWmwFDQJqnFQICnka3u1fsio6dCtHMgTTxpBXI6IWi7TvzuLGdWOn9p44/uvx41l7934ScYmXOEJuP+YetNYK3tBE9/zd74PZ8f6tC5eInl5Y0vdAxuCc5PaK9MpBPB4ysNJYY3EQSn3f1ozHCY9v9fV1uL24RP2F/A6ZfTBoq3NkK9JJcurKuq7ZoB6Sp79MOhC1iE1QmOOroDd4ODFhWXcfZyw+rLxIXM9qJCdvK7jvsNQqnrgp7wr9kEUKeT3rEpC1VCvjCq4SbydKWeNgXQJxVMuvAxMmOIW47HAXNAlnmSCtEkJPqEQu/FYIodqhrYfs3g0AYddEJ58c+pOhutPgZXhMxDI3suo3N4Y6eZ8gahnGlcEzcgvwMi7kEnpn0M8xDLpagmFchWzVRX7YXZhfnViQSp68H5gNVytcqzLiqjIWdUAos5tZ4t/9B/S16LDbK1KvU4suytWrFGuKCCLahyF0LSZMK3gue4ndai6EVEKHnpTj3VEh+PUro0IZ/ZyfmlYp1m/kNTvmZKmxlol1ELp2O9Dv73BPhizavaHnFP7YSZtr1b1TMkzWtQqxMsccxmcFiVoyOa7MPRrDhPtlcq+JbP470Bk/SYvht+3GG9JIJ69WLKiTUcO8ygSdli8vJEVUnC/Ohms1u9uOGjkJwlivosaXAnrjnS9YlygqPHMv3Oqw02m4e7kqsfrfOjHMhGTvSvZIdvb2+TMQRrKAmsbJfRDGgJ085Tk8Edj98x6Kd1Q+WIQwUlXD5elViGX4U3sm4w0rTk/1QDeE07SrEjVCB5DC7vSxqDMOArzLKX9e0Axh5OgmKGGSVjFWL6ugRrX+feXMozJqpi+2QFh1Pi8xlIVksKpvksxNHXi4irFKXzGoEYtHwKKNPhE1QiqEVzbpQY3zWgFYk3lZRoIvGVYjFjkTukZ61AOWNFAcarjIr1jcE1Az6D53BixJIUcmen7cv3qxDBcqB6nWx2DBwBCLBOE8RLK/lkICf3AbWJBeNIMEoRxWNRbcucKRtRznEiy0uqi7mSHd3goRVcteJNBH4sG0atapK717dlVjGaYpGuTvXwWThvWtkL4HkWW+KkKScPAMmHSakpDAvbbBasfat9muq+U+nAemjDxiyVaDTEWzqeW8IiGJP9sOZjycl6eRRBfCqseCnkZOV4ultn+EiMoC3yyVhu6YHCCqiCT74ZFSiGjiCK3o/6hzG75BLEjJ9iKJE3bYIILcOVpEkldNB3PiOgUkDUp//twE4XWN7CpGHcl5Fb5FrOaTquH76YVnIIyM9R4K9bLXlYJJ3efcg0gS5V01+yEMWxXDoo5LqIFvEgv65phB1OHU1g9NIX+p8KKsoF7Rg31gWsEQi3qSMJe+DYLrsl1yMiLq+dYvfKNYcKOVGjQs/sX/5MaDwbukTUE+aM2fuwUWNLidGMAjX5hv/wgGZ+pG2WIFA6hHZ+FbxYJE/2wpGq7Yvnf9VEZZpn+vH/94JC3fwXAYyHH/BlgyUsRhIFZmT80nNe3zr86z29pPX/7E2F0YSNixAb5dLMgdMtZCr6S6ub2vUks+Jye/KVlXlT/tkCUvBml1Byza+CeHBi6PSnk3H302fzr5XkrJpZdZLMNwaER/6YZvGQtydwa9Dy0qkl3OlnlezZbtkiJiEEVEK9PqKBaDEGdYXsiWeUbIZiiny4tBCKPd8G1jQW+4r9h5vRgS/SUDluH5FQpD8Yb5PcXXWQbfOhbcHKUVtIzzHe2HZUm8IHvRMlZum4VvHwv2lfAsWkRR15e97LeO+qbRouLD5QDfLhapYY+goAUzvrM5sHyzG6cZL1rgpI/cgG8ai9RyyeFGs7x847N+WJH2UYFFsxTh4umHEBUJK4lFzmKkerymUrnV0R5Yqea6C3SluVS851ICREnvayUasWB25KzsdmEEikN+kNcFUdC/cY+v0YsRcMWeIzaImh4BVxCLtL/8QaMsiRiSKAnsaF4zREn/57NMMYehuTyC95AtE6InUV5ZLFLzwC/5DpVVvGjgVTyqO/+8rQuiaDzv0PEiWRK9wY6K3QL7e8oNIHzjWEbvGlJ/lBwCz864xP9ycSwvOLgD5xfjIeqa0i/lexjVLSnE7zUygttV0WF7CvDtY4W3/87Is1e1yHrc/4dqZI//+Or8yONx+B95V7AltSKfW/o9lv104HJbQ0szkFY/lnlxZbeeDD+vrq5+Xj1w90xZHPyPNW9rac/55/caEh9vHQfCqsb6buWxvsf6D3xnOtYm+M766yjffY+19mPFZqzvbOZjfZdkPtZ35f+bWJn7+jIKhgcGhgsy+v5fdfcB3cSVLgD4N708ON42QgLSbFmr5KRIdopFngljqngmoe2hp1DTCzU9sPSa5ofh5NCetrCcjbstU+yRG8UalRkbhuJxN9WYDtvT4/+qeYos/L7DqdT5uf+dOzP/vf+fo6HDpWdkZmXnfCs3L9+eBB1kGwqW/tdp4YjTvcvnb13/9J7pqZZvWWfsGTPiqVX97k3qsDgV7D9w8FBhURHjYByO4qKS0rLyw0fsHR0sy6xxoNLcz/eN+GS4NkVjMRis3zMYhpvMZstvpsxfEQ1hZ885eqykwsm6GLfb8x23m/FyTt5debAq09aRaWh5XGWw+g96KFVrQoeHoAOfYrVLd4yeCuFkO36issLpYjyCr2K3g+VLTp463YEj6/ENoMIrjy4ya1KpoAwa7Z4nXoRwse8/w1R7yUBhxYzIVh7NgzBaSKThUBWhmqJpv+9nHG2ZuAzCoaaqVuTcQmjF3uq6+gYIm346tC1kz8ug0IqJJp2VksCaqN/bH1RrbOJdxYIETHXd0XwIkw8oQ1ueTP89KDK0ZzstUrFU86JBKufGzIMc116oULgqmyE85qHDc6z65aDEk3+VV31gMa/5AFQ4Vch7BBlc7NlzEA5pczSoHHYVyBc1elMsJZNu0VgbKJRRz1YI8niqz+dAODyPDuSgtypIwSfMcZRsliFvrANF8pqcHkE214WLEAa70Qw/fmAayPTx2s2/pRSwbp7yf6DApUJRUKCF4S+ng2qDE9FKaEZ/kKfrdjMVkEEfk0jrdLTOpA+y9EqZ8BHI1njB1RJ4UVXBsaz47Q/O4Qmciq1XakCtSXvaJudkeqXMspLHAh0EZYjV6ahfr5+95I03lsweNobS6WIMAVvKfiQ/VhUBYsWIIldSevXa9fIbN8uOVTpE0eUJEM/qkxmgUtQwtGPJOMUGMmxZ7R8rq4mesf6lh/v/9GV1bpf+D780bEaKJoHylYijJS1WXr9YuUW2sOzWpYKMJPhezbms5vraCtYr+Gm9rjoTe9JK8/Ce7Ua/UOn0O3ps8Yt4dP/598cY/ZZi5rVDQYbj/uOK4YuuNWeCL/u3T42i/6rVecMG6ryoRzO0uSdItnFNos+4StDpJwYrlElbPnt8bLJvtJbMBcnyCn3nKzd7u7wBAjt96pjo8s1E/g6os+45DUWcuSRV3wEUabxx9jII4ZU1Oj1FGvACSJXRxPrEinPUF0Bw9lOl1W7fnG0GTGX/HvN8kGilzxNOQsrbI6MgpLljH6QpgkH6EQv1rQLW4nY2HYfQTh91cALBW5IHqnwQl6qgj1bXRcPJyzY/Ok/CvddnsyQ1Xmrbz2bWQ8TK67pjh3ZlV/JkiNlDNaBG1E4jJXvWmrw+kdwqGb8vCiRIu08XR/b7nS3l99nOFVYQF83d3g9SnLvp8xzpPACqdNfhV07S9uGu0ibjS45f+ghINFZvoZBkaed+XeGJWInnc0Ga9HIyWkxdVvimeMo4LA3ateABPRGractBspFktMY/3QXa1ch5yFjlgVRJ5dVEtNiyKLXvlhHzPmjXVi2FWDY9DDKMjP+Skpf4Ncc4IgelxApFi8UrrmJ2P6ixgRhaX25aCO34DHdHolJjR4Isq4i3qnG/mwrtqOKLUawqbsvLpKQbTgHhjqWHcWhpZvaX0hhZRevMrVpZPdbtpS68WHLJHRr2Q2ILGlqiuqE1eZiROJjinTchlP6LDOhX0zsng0zjHjLiLP7NPAipmcd55DwKcuXd9uKh9bdoUKMf+SKFDn0yzgtafKkPTgLZVnwYh4dW6Fky6m8cvlQlK6VTIgq3h8sGZVBiICmhojV0lh7f+v8LFNiNE1kzcB2EcAR/RmUuHAf5kspEfEO8orL0/m0NhdFrg4+XR/C6LEbZoUEbfx2PdtmYFkIIl/H8zNeDElkXGBTwkkxQZXCMgWy+9PYyCMz2Kxo9EcY+DIpsS0yW+PLfXunF11kAitTzOOJVoM5XmykiWpoPxyZBIG/hbgqx66MVroQHavDCdCgElVPhQZdZDsrk1aGhxZWBOuN20OTrqbjEvW8FzEIjGhNDngWF8NF0Cainl58TTvywkgcKXWGFnzkKz4E6kx7UkNFKSFm9cnLoe4EeNd+V6S3cxJfuCcGkH0OLLPEaKJXt8qheaiHd/E7G0dMjFtqAlIZPDaVfAMX6oPcWpvW2oPlThPJHxUXWlLrItZpK20xfUqTkWM2UhdGAfTTDSjYIUKo7OoRoePCTqPejZ2hGTfocRXnIXQXVeqQY/D9BxK9fiY8wXI76EenROb+y4RuF1fIkBHGnFQ2sMhsols0Vo0nLDqrt1v4cLbQK0v1m8TNTN8APRqN7fkpvUAE3EN38CCCoDaftOlpOsrdAuXOFjrbny6I8UG++yUL5i9MZkx/q1XPsyG/tiG9L0sRBQMg/fPDkjap88JN75/rN8pxoIPRMQd8QewIh88DZsh8UonmZOw4qXOXa/iTXJQiDL3ahtoRtklM1KUNiNCaTKQ61GdUvBKz5PM+LPH++GUj2ei/PstXcmQLARqKVXezXgJ267eTFH7hbwrXyvozGaGszhMPgB3RUEMkJ38LzmXUqIFXsD/ebCrYKsJqyv7uFb3mclcTFLjNY0e0QkP1ihRBARa0dVPgHmuH5WxAWKyZoJRbGxM3qQqyRf7pCL7l0vNX608zaeg1P0FtQmYUGd8HOqORahAC4qzZQoRHfDi9DeHR5IlFPSRH/HF6Snmi7bTlPAL70n4eJpyIX2tz7uCXw6raZFwJir4Eax1Eauq5AuGwLfW4R6pyJ35O70Ou1dFRShYqA+ItEPypL4E/h9awQkHgD1GgocndEsGBSn1hTsrxg2Uu9bZNLaQYaJ2h9I+IhFz0wHq3YULCuc0GCdaITBQt7eG3oc4twm1G/YLlK7Wi2dqFgHcCP7mP0gYN1JViwyjtpsGDDyu0pmtAzffxD6A1n0jU28ORSgB7u+P1km9HAaXjAGWTOug5q5Do84Q0WNmrbBE1KXIjhNfzTofh+//PHzGIiJrZr1T/PZZUZuKx8lgWVs6KMznIwgYNVBmpk8x0ywaNzi35D05Zg48vwF/zCK73s7z/GqrUsnXyl+2NaMWwzIB9Mx0sHQG78XcDwfUOFZhZl9B3oAPO+2DtrvHmI3hDgtFGr5XNATp/5O+fxuLnWM/lAaLztdHg8DF9xEbCHjW3/C7GzAck/9Hev50e4YKgyH1S4g1fwh6FjdOn2y4m/nm4x0QPMuiE0Ovs+wTQSsJqLTR5GaPpHOvjIqy9kmJKb2UAYPYBoPo5lHD3PMO7vMMV4Z1wDqIAfyZ2N0HFGLej2zL6v+i5e3Ps5A/pi9gKQagqOFNRAAKcbcs+Bj17oucqvmc7prCPfyT3yN/TOTlWZQk1p2zOUh8mFSNiGGl7GqNlVnYZWDsn0wxBEuTNMa4eGOjd6JM+HSPgctXMyLPoYFHtxqQHdKrpCEIfxPexYDShWxaPZrzQKImEoWh0l6FaCYoM248ZBGyCI44wnPNlzjUP5fAMiwjY7ETdYt4FCc/8QL+noroxCBl3kHVAqs4RB8/s/IDL2paDSrKVdQaF+49GzunYbBHWdRXlYmgEK3UJZ6PbkQmR8Hoeukv4KFOqdgvvQbYGgDuOCI7E5HF/CKkrTITLSBqL8sexRNsWTDbRiRyQBhP5wqLa26hRbrP6zoepdBgqHVm9aahM921UOrUsVDq2aWjSwPN7jECkrcB4aPvxMWfUcbh36wMuSKkrxrCV/xsIrkHSIlKQRuMhRNyUKZBt3P241lrgYQskvdOAqyTsgX0EJ8Ufcgsh5NjFZXekf2aj4t5pXAAtcR6Om9C+6jBXIGprI+d+BGqLt56sg0yu7DMQ2hbkyaqtauNLT8pMQV/BWX4ZIWqklO7u9CbJMXR1P7FL8o4SyPaT6erTcHbCMQNZ4RdK45zQUQu9cBzK8eb+OkjOw8NBSUv6Xe5vY1elEvztisxaSslhGtO7dQVOINaYfYMFmLcTDHwDp8s5zOFbeSM1YaNsdccHJm5cMlTyuyFhR5q+hfacrXQLi5o4mSR5XKFYRfSzEu3csPs2lPgJJuv6VjJX+wQUK9ma6+Xq7xPnqNhGrFvFQDUTcaG0yhdGvLwQJus/UkcVfic+AJNedAlbsPCRlmk6/5SB37DMXciHy5u40UwSNZfdGaEeX/zb5FDSZpfaCP+dbLMLePtXub807yTMtRIz5i3A3LHhcQxEM2gnLIZSoZ7ebU8li+9iBXUCi7AuMgLV4xZtZEIr9VglbLBD46zaIILyytFCkGE2IQ+qiX5kSq6FI+t/9XubKEitm68rzQpxUUMs7BEKLWHsa7pKVOoNfta5lyrP/E/AeuG29xphAkSwx3UGGy62CD4avO5hTAwEU3CplXQKpxXW7Ae6a3f7d+qxG3Wtv/PGjJECSpnbv83aiye/XfmkaC3Kkn20VfDGsq/RE9jnAarKqrpX4nwnYUoGfKiPO9lKKlfKVrNfRv9nRd9Uf+63o33VFv+6je+3YQ+uGB+pxuA/ksZ9pFfx4Kliu8urlfzReamhoOJLdfOB6bRHPofmtLVaNcFe9hFr4InEmo46mrTNmWGlaZ0RbERCLZj7IlXGy2iP4K3ZwIsuLRUVFDp4VOZdb8NfiutuxAtv8WD0VTKrBkEoF8V78rpUg3+Qb5PEyWLHbzZChxMTbx+Gue+RdE6UAPW0wKBF9VPS2CLIV87UN0Am8uH1zAiWTVbv2M1Co+bao4MS/s6ehU7h3r3E8JYvG+NRGUCzrkJORN7jEuotR0EnYRj6uNVCSfal9fTCoYT9wgS0WJPM6D+VCJzLvKYvOSkliSNl0372gUu5JkROkYZyFF2ugc3lxikZnkBAqOm7vClAvan9TNecR2uXg68ozodOxLZxoMOtDTvUJevOHez+H8KhpPsSxjBCKx+UsLG+Azunz+5420sODpKNVTxvHvP8ZhE96ztmSag6XUWLuimrvsVuZ0Hl16b738fGbY4YbrEScvtQbB1ie3jp4FIRZZlVZoejkHG4iIz2MV3R6ao9eSodObujCfbMf/0v8ALNR8z2dVmvZM2bJoG5/hg5xbv/Rq4VFrlaec32PbeWZktIb/ziSDv8/pH28rPuqF3r36dOn99cv9ej+4ry50KHsednNty5f+d6dw425+VHQvm8AyMyZjy3COasAAAAASUVORK5CYII=;" vertex="1" parent="yK2G3_Zb7iP9LqbmVMu7-51">
          <mxGeometry y="0.9399999999999409" width="11.87" height="11.87" as="geometry" />
        </mxCell>
        <mxCell id="yK2G3_Zb7iP9LqbmVMu7-53" value="GitHub Actions" style="text;html=1;align=left;verticalAlign=middle;whiteSpace=wrap;rounded=0;fontSize=14;" vertex="1" parent="yK2G3_Zb7iP9LqbmVMu7-51">
          <mxGeometry x="18.940000000000055" width="129" height="13.75" as="geometry" />
        </mxCell>
        <mxCell id="yK2G3_Zb7iP9LqbmVMu7-54" value="" style="group" vertex="1" connectable="0" parent="1">
          <mxGeometry x="361.94000000000005" y="375.80999999999995" width="427.8699999999999" height="20" as="geometry" />
        </mxCell>
        <mxCell id="yK2G3_Zb7iP9LqbmVMu7-55" style="edgeStyle=orthogonalEdgeStyle;rounded=0;orthogonalLoop=1;jettySize=auto;html=1;exitX=1;exitY=0.5;exitDx=0;exitDy=0;entryX=0;entryY=0.5;entryDx=0;entryDy=0;" edge="1" parent="yK2G3_Zb7iP9LqbmVMu7-54" source="yK2G3_Zb7iP9LqbmVMu7-56" target="yK2G3_Zb7iP9LqbmVMu7-58">
          <mxGeometry relative="1" as="geometry" />
        </mxCell>
        <mxCell id="yK2G3_Zb7iP9LqbmVMu7-56" value="Compile" style="rounded=0;whiteSpace=wrap;html=1;" vertex="1" parent="yK2G3_Zb7iP9LqbmVMu7-54">
          <mxGeometry width="67.75" height="20" as="geometry" />
        </mxCell>
        <mxCell id="yK2G3_Zb7iP9LqbmVMu7-57" style="edgeStyle=orthogonalEdgeStyle;rounded=0;orthogonalLoop=1;jettySize=auto;html=1;" edge="1" parent="yK2G3_Zb7iP9LqbmVMu7-54" source="yK2G3_Zb7iP9LqbmVMu7-58" target="yK2G3_Zb7iP9LqbmVMu7-60">
          <mxGeometry relative="1" as="geometry" />
        </mxCell>
        <mxCell id="yK2G3_Zb7iP9LqbmVMu7-58" value="Static Analysis" style="rounded=0;whiteSpace=wrap;html=1;" vertex="1" parent="yK2G3_Zb7iP9LqbmVMu7-54">
          <mxGeometry x="90.13" width="98.87" height="20" as="geometry" />
        </mxCell>
        <mxCell id="yK2G3_Zb7iP9LqbmVMu7-59" style="edgeStyle=orthogonalEdgeStyle;rounded=0;orthogonalLoop=1;jettySize=auto;html=1;exitX=1;exitY=0.5;exitDx=0;exitDy=0;entryX=0;entryY=0.5;entryDx=0;entryDy=0;" edge="1" parent="yK2G3_Zb7iP9LqbmVMu7-54" source="yK2G3_Zb7iP9LqbmVMu7-60" target="yK2G3_Zb7iP9LqbmVMu7-61">
          <mxGeometry relative="1" as="geometry" />
        </mxCell>
        <mxCell id="yK2G3_Zb7iP9LqbmVMu7-60" value="Functional tests" style="rounded=0;whiteSpace=wrap;html=1;" vertex="1" parent="yK2G3_Zb7iP9LqbmVMu7-54">
          <mxGeometry x="209" width="98.87" height="20" as="geometry" />
        </mxCell>
        <mxCell id="yK2G3_Zb7iP9LqbmVMu7-61" value="tofu apply" style="rounded=0;whiteSpace=wrap;html=1;" vertex="1" parent="yK2G3_Zb7iP9LqbmVMu7-54">
          <mxGeometry x="329" width="98.87" height="20" as="geometry" />
        </mxCell>
        <mxCell id="yK2G3_Zb7iP9LqbmVMu7-62" style="edgeStyle=orthogonalEdgeStyle;rounded=0;orthogonalLoop=1;jettySize=auto;html=1;" edge="1" parent="1" source="yK2G3_Zb7iP9LqbmVMu7-48" target="yK2G3_Zb7iP9LqbmVMu7-8">
          <mxGeometry relative="1" as="geometry" />
        </mxCell>
        <mxCell id="yK2G3_Zb7iP9LqbmVMu7-63" value="" style="outlineConnect=0;dashed=0;verticalLabelPosition=bottom;verticalAlign=top;align=center;html=1;shape=mxgraph.aws3.cloud_2;fillColor=#F58534;gradientColor=none;" vertex="1" parent="1">
          <mxGeometry x="823" y="372.05999999999995" width="27.5" height="27.5" as="geometry" />
        </mxCell>
        <mxCell id="yK2G3_Zb7iP9LqbmVMu7-64" style="edgeStyle=orthogonalEdgeStyle;rounded=0;orthogonalLoop=1;jettySize=auto;html=1;" edge="1" parent="1" source="yK2G3_Zb7iP9LqbmVMu7-61" target="yK2G3_Zb7iP9LqbmVMu7-63">
          <mxGeometry relative="1" as="geometry" />
        </mxCell>
      </root>
    </mxGraphModel>
  </diagram>
</mxfile>
